<!DOCTYPE svg PUBLIC "-//W3C//DTD SVG 1.1//EN" "http://www.w3.org/Graphics/SVG/1.1/DTD/svg11.dtd">
<!-- Uploaded to: SVG Repo, www.svgrepo.com, Transformed by: SVG Repo Mixer Tools -->
<svg fill="#ffffff" height="800px" width="800px" version="1.1" id="Layer_1" xmlns="http://www.w3.org/2000/svg" xmlns:xlink="http://www.w3.org/1999/xlink" viewBox="0 0 512 512" xml:space="preserve">
<g id="SVGRepo_bgCarrier" stroke-width="0"/>
<g id="SVGRepo_tracerCarrier" stroke-linecap="round" stroke-linejoin="round"/>
<g id="SVGRepo_iconCarrier"> <g> <g> <path d="M503.591,48.055l-28.06-28.059c-11.211-11.211-29.355-11.212-40.565,0l-35.831,35.831l-8.829-8.829 c-6.603-6.605-17.327-6.609-23.934,0l-56.261,56.261c-6.641-6.066-16.936-5.905-23.36,0.519 c-6.426,6.424-6.586,16.719-0.519,23.359l-29.965,29.965L135.033,35.866c-30.923-30.922-80.97-30.924-111.895,0 c-30.85,30.85-30.85,81.045,0,111.894l121.235,121.235l-70.687,70.687c-1.871,1.871-3.328,4.326-4.092,6.624L25.736,478.126 c-4.424,13.302,8.303,25.759,21.402,21.401l131.819-43.859c2.28-0.758,4.731-2.198,6.624-4.091l70.687-70.687l64.784,64.783 c1.862,1.862,4.281,3.31,6.624,4.091l131.819,43.859c13.15,4.373,25.816-8.135,21.401-21.401l-43.86-131.818 c-0.754-2.271-2.223-4.756-4.091-6.624l-23.563-23.563l41.904-41.904c6.605-6.604,6.609-17.326,0-23.934l-29.253-29.253 l56.233-56.233c6.609-6.609,6.609-17.325,0-23.934l-10.505-10.505l35.831-35.831C514.802,77.412,514.803,59.267,503.591,48.055z M47.07,123.826c-17.65-17.652-17.65-46.374,0.001-64.025c17.694-17.694,46.331-17.696,64.027,0l0.166,0.166l-64.027,64.026 L47.07,123.826z M71.173,147.928L135.2,83.902l97.134,97.134c-13.455,13.455-50.841,50.841-64.027,64.026L71.173,147.928z M68.524,456.739l24.537-73.747l49.21,49.21L68.524,456.739z M173.613,415.676l-64.027-64.026 c4.159-4.159,194.255-194.253,200.553-200.552l64.026,64.026C366.148,223.141,182.204,407.086,173.613,415.676z M280.202,356.956 l64.026-64.026l17.285,17.285l-39.648,39.648c-6.609,6.609-6.609,17.325,0,23.934c6.608,6.609,17.325,6.611,23.934,0 l39.648-39.648l11.596,11.596l-64.026,64.026L280.202,356.956z M413.57,377.088l24.537,73.747l-73.746-24.537L413.57,377.088z M385.448,286.282l-17.285-17.285l29.938-29.938l17.285,17.285L385.448,286.282z M398.099,191.191l-64.026-64.026l44.266-44.266 c8.15,8.15,55.13,55.13,64.026,64.026L398.099,191.191z M443.826,100.517L423.07,79.76l32.179-32.179l20.757,20.756 L443.826,100.517z"/> </g> </g> </g>
</svg>